<svg xmlns="http://www.w3.org/2000/svg" width="66" height="14" viewBox="0 0 66 14"><g opacity="0.3"><path d="M9.87,7.58v5.71H6.6V8c0-1.09-.38-1.65-1.24-1.65s-1.6.7-1.6,1.92v5.06H.49V.39H3.76v4a4,4,0,0,1,2.53-.9C8.47,3.53,9.87,5.12,9.87,7.58Z" fill="#fff"/><path d="M21.28,3.8v9.48H18.76l-.28-.67a4.49,4.49,0,0,1-2.86,1,4.84,4.84,0,0,1-5-5.06,4.82,4.82,0,0,1,5-5,4.52,4.52,0,0,1,2.89,1l.34-.73ZM18.17,8.55a2.12,2.12,0,1,0-4.24,0,2.12,2.12,0,1,0,4.24,0Z" fill="#fff"/><path d="M29,3.77v3H27.74c-1.15,0-1.64.51-1.64,1.72v4.82H22.83V3.81H25l.51,1.05a3.18,3.18,0,0,1,2.61-1.09Z" fill="#fff"/><path d="M40,.39v12.9H37.55l-.31-.7a4.36,4.36,0,0,1-2.86,1,4.83,4.83,0,0,1-5-5.06,4.82,4.82,0,0,1,5-5.05,4.45,4.45,0,0,1,2.36.66V.39Zm-3,8.16a2.12,2.12,0,1,0-4.24,0,2.12,2.12,0,1,0,4.24,0Z" fill="#fff"/><path d="M51.38,3.8v9.48H48.86l-.28-.67a4.49,4.49,0,0,1-2.86,1,4.84,4.84,0,0,1-5-5.06,4.82,4.82,0,0,1,5-5,4.52,4.52,0,0,1,2.89,1L49,3.8Zm-3.1,4.75a2.13,2.13,0,1,0-4.25,0,2.13,2.13,0,1,0,4.25,0Z" fill="#fff"/><path d="M64.25,10.43a1,1,0,0,1-1.09-1.09V6.75h2.3V3.81H63.07V1.08H62.4L59.89,3.76V9.9a3.12,3.12,0,0,0,3.37,3.39h2.25V10.43Z" fill="#fff"/><path d="M59.11,3.77v3H57.84c-1.15,0-1.64.51-1.64,1.72v4.82H52.94V3.81h2.19l.5,1.05a3.19,3.19,0,0,1,2.62-1.09Z" fill="#fff"/></g></svg>