<svg xmlns="http://www.w3.org/2000/svg" width="172" height="30" viewBox="0 0 172 30"><path d="M88.62.94H84.4c-13.51.12-12.85,8.4-12.85,8.64,0,0,0,17.18,0,17.18a2.48,2.48,0,0,0,2.37,2.56h2a2.48,2.48,0,0,0,2.37-2.56V10.45c.47-2.72,3.68-3,3.68-3H89.3s1.88-.14,1.88-3.15A3.07,3.07,0,0,0,88.62.94" fill="#80bd01"/><path d="M117.27,17.92c0,4.76-3.9,5.08-8.71,5.08s-8.72-.32-8.72-5.08V12c0-4.77,3.91-5.07,8.72-5.07s8.71.3,8.71,5.07ZM108.56.62C100,.62,93.1,1.79,93.1,10.32v9.29c0,8.54,6.92,9.71,15.46,9.71S124,28.15,124,19.61V10.32c0-8.53-6.93-9.7-15.46-9.7" fill="#80bd01"/><path d="M43.08,3.51A2.47,2.47,0,0,0,40.72.94h-2a2.47,2.47,0,0,0-2.37,2.57v17.2l0-.07c.54,7.6,7.23,8.67,15.41,8.67,8.54,0,15.46-1.16,15.46-9.7V7.66h0V3.51A2.47,2.47,0,0,0,64.88.94h-2a2.48,2.48,0,0,0-2.38,2.57V17.86c-.13,4.53-4,5.14-8.7,5.14s-8.7-.61-8.7-5.38Z" fill="#80bd01"/><path d="M158.54.66c-4,0-7,.53-9.08,2-2-1.45-5-2-9.08-2-8.54,0-12.46,2.37-12.46,10.9V26.71a2.46,2.46,0,0,0,2.36,2.56h2a2.46,2.46,0,0,0,2.35-2.56V13c.13-4.52,1-6,5.71-6s5.57,1.51,5.7,6V26.71a2.47,2.47,0,0,0,2.37,2.56h2a2.43,2.43,0,0,0,2.34-2.3,2.17,2.17,0,0,0,0-.26V13c.13-4.52,1-6,5.71-6s5.58,1.51,5.71,6V26.71a2.46,2.46,0,0,0,2.36,2.56h2A2.46,2.46,0,0,0,171,26.71V11.56C171,3,167.09.66,158.54.66" fill="#80bd01"/><path d="M29.52.94h-2A2.46,2.46,0,0,0,25.15,3.3c0,.09,0,.18,0,.27v7.34A49.84,49.84,0,0,0,7.74,11V3.57A2.46,2.46,0,0,0,5.4,1h-2A2.47,2.47,0,0,0,1,3.57V26.82a2.47,2.47,0,0,0,2.37,2.56h2a2.45,2.45,0,0,0,2.34-2.56V17.68h0a50.29,50.29,0,0,1,17.39-.07v9.2a2.47,2.47,0,0,0,2.37,2.56h2a2.48,2.48,0,0,0,2.38-2.56V3.51A2.49,2.49,0,0,0,29.52.94" fill="#80bd01"/></svg>