<svg xmlns="http://www.w3.org/2000/svg" width="71" height="14" viewBox="0 0 71 14"><g opacity="0.3"><path d="M36.87.89H35.14c-5.57,0-5.3,3.46-5.3,3.56v7.07a1,1,0,0,0,1,1.05h.84a1,1,0,0,0,1-1.05V4.81c.19-1.13,1.52-1.26,1.52-1.26h3s.77-.06.77-1.3A1.26,1.26,0,0,0,36.87.89" fill="#fff"/><path d="M48.67,7.88c0,2-1.61,2.09-3.59,2.09s-3.59-.13-3.59-2.09V5.45c0-2,1.61-2.09,3.59-2.09s3.59.13,3.59,2.09ZM45.08.76c-3.51,0-6.36.48-6.36,4V8.58c0,3.51,2.85,4,6.36,4s6.37-.48,6.37-4V4.75c0-3.51-2.85-4-6.37-4" fill="#fff"/><path d="M18.12,1.94a1,1,0,0,0-1-1h-.83a1,1,0,0,0-1,1V9l0,0c.22,3.13,3,3.57,6.35,3.57s6.36-.48,6.36-4V3.65h0V1.94a1,1,0,0,0-1-1h-.83a1,1,0,0,0-1,1V7.85C25.23,9.72,23.65,10,21.71,10s-3.59-.25-3.59-2.21Z" fill="#fff"/><path d="M65.67.77a6.43,6.43,0,0,0-3.74.82A6.47,6.47,0,0,0,58.19.77c-3.52,0-5.13,1-5.13,4.49V11.5a1,1,0,0,0,1,1.05h.84a1,1,0,0,0,1-1.05V5.86c0-1.86.4-2.48,2.35-2.48s2.29.62,2.34,2.48V11.5a1,1,0,0,0,1,1.05h.83a1,1,0,0,0,1-.94V5.86c.06-1.86.41-2.48,2.36-2.48S68,4,68,5.86V11.5a1,1,0,0,0,1,1.05h.83a1,1,0,0,0,1-1.05V5.26c0-3.51-1.62-4.49-5.13-4.49" fill="#fff"/><path d="M12.54.89h-.83a1,1,0,0,0-1,1s0,.07,0,.11V5A20.63,20.63,0,0,0,3.57,5V2a1,1,0,0,0-1-1.06H1.77A1,1,0,0,0,.8,2v9.57a1,1,0,0,0,1,1.06h.84a1,1,0,0,0,1-1.06V7.78h0a20.93,20.93,0,0,1,7.16,0v3.78a1,1,0,0,0,1,1.06h.83a1,1,0,0,0,1-1.06V1.94a1,1,0,0,0-1-1" fill="#fff"/></g></svg>