<svg xmlns="http://www.w3.org/2000/svg" width="78.072" height="54.895" viewBox="0 0 78.072 54.895"><g transform="translate(-1243.123 -1593.821)"><g transform="translate(1263 1603)" fill="#fff" stroke="#707070" stroke-width="1"><rect width="41" height="36" stroke="none"/><rect x="0.5" y="0.5" width="40" height="35" fill="none"/></g><path d="M91.374,72.589a9.81,9.81,0,0,0-6.9-6.947C78.383,64,53.969,64,53.969,64s-24.414,0-30.5,1.642a9.81,9.81,0,0,0-6.9,6.947C14.933,78.717,14.933,91.5,14.933,91.5s0,12.786,1.631,18.914a9.664,9.664,0,0,0,6.9,6.836c6.089,1.642,30.5,1.642,30.5,1.642s24.414,0,30.5-1.642a9.664,9.664,0,0,0,6.9-6.836c1.631-6.128,1.631-18.914,1.631-18.914S93.005,78.717,91.374,72.589ZM45.984,103.111V79.894L66.39,91.5Z" transform="translate(1228.19 1529.821)" fill="red"/></g></svg>