<?xml version="1.0" standalone="no"?>
<!DOCTYPE svg PUBLIC "-//W3C//DTD SVG 20010904//EN"
 "http://www.w3.org/TR/2001/REC-SVG-20010904/DTD/svg10.dtd">
<svg version="1.0" xmlns="http://www.w3.org/2000/svg"
 width="700.000000pt" height="700.000000pt" viewBox="0 0 700.000000 700.000000"
 preserveAspectRatio="xMidYMid meet">
<metadata>
Created by potrace 1.11, written by Peter Selinger 2001-2013
</metadata>
<g transform="translate(0.000000,700.000000) scale(0.100000,-0.100000)"
fill="#000000" stroke="none">
<path d="M3427 6994 c-1 -1 -58 -5 -127 -8 -838 -39 -1660 -407 -2269 -1017
-311 -311 -580 -705 -736 -1079 -15 -36 -33 -78 -40 -95 -23 -52 -73 -197
-100 -290 -15 -49 -31 -103 -36 -120 -15 -50 -57 -263 -74 -373 -14 -97 -17
-124 -30 -267 -6 -68 -7 -421 -1 -475 2 -19 7 -71 10 -116 4 -44 8 -90 10
-101 3 -12 7 -43 11 -70 3 -26 10 -68 15 -93 6 -25 12 -56 14 -70 2 -14 9 -45
15 -70 5 -25 12 -56 15 -70 21 -114 123 -418 187 -557 10 -24 19 -45 19 -48 0
-4 25 -56 56 -118 235 -470 559 -870 971 -1199 166 -134 417 -291 623 -393
122 -60 402 -175 426 -175 8 0 22 -4 32 -10 14 -8 127 -42 181 -56 9 -2 34 -8
56 -14 22 -5 72 -17 110 -25 68 -14 80 -16 155 -29 19 -3 49 -8 65 -11 44 -8
82 -13 160 -20 39 -3 90 -8 115 -11 51 -5 411 -5 480 0 186 14 450 56 600 95
328 86 597 193 875 348 144 81 403 257 476 323 9 8 38 33 65 55 258 216 521
519 710 820 84 135 227 416 276 545 48 124 98 264 103 287 2 10 16 61 30 113
31 113 53 212 70 325 2 11 8 49 14 85 6 36 13 98 17 138 3 40 7 92 9 115 6 65
6 438 1 477 -3 19 -7 64 -11 100 -5 66 -10 108 -20 170 -3 19 -8 53 -11 75 -3
22 -12 68 -20 103 -7 34 -16 74 -19 90 -28 160 -141 490 -230 677 -27 55 -49
102 -49 105 -1 6 -106 198 -121 221 -5 9 -18 31 -28 48 -30 53 -149 226 -159
229 -4 2 -8 8 -8 13 0 14 -126 169 -225 278 -67 73 -179 185 -246 244 -30 27
-65 59 -79 71 -132 117 -389 295 -565 391 -78 43 -263 135 -270 135 -2 0 -33
13 -67 29 -131 59 -433 158 -568 185 -14 3 -36 8 -50 11 -85 20 -204 39 -311
50 -30 3 -63 8 -74 10 -41 8 -421 25 -428 19z"/>
</g>
</svg>
